<?xml version="1.0" encoding="utf-8"?>
<!-- Generator: Adobe Illustrator 22.0.0, SVG Export Plug-In . SVG Version: 6.00 Build 0)  -->
<svg version="1.1" id="Layer_1" xmlns="http://www.w3.org/2000/svg" xmlns:xlink="http://www.w3.org/1999/xlink" x="0px" y="0px"
	 viewBox="0 0 448 105" style="enable-background:new 0 0 448 105;" xml:space="preserve">
<style type="text/css">
	.st0{fill:#6A3311;}
	.st1{fill:#A46F3E;}
	.st2{fill:#F9D70B;}
	.st3{fill:#ED3F32;}
	.st4{fill:#00B494;}
	.st5{opacity:0.2;fill:#414042;enable-background:new    ;}
	.st6{opacity:0.2;}
	.st7{fill:#414042;}
	.st8{fill:#ED5D51;}
	.st9{fill:#FFFFFF;}
	.st10{fill:#D13834;}
	.st11{fill:#E3E82A;}
	.st12{fill:#3DABEF;}
	.st13{fill:#F75B57;}
	.st14{fill:#EFC514;}
</style>
<path class="st0" d="M217.2,49.1l3-1.3c0.3-0.1,0.6-0.5,0.6-0.9v-1.5c0-0.5-0.4-0.9-0.9-0.9h-1.2c-0.5,0-0.9-0.4-0.9-0.9v-1.2
	c0-0.5-0.4-0.9-0.9-0.9h-1.2c-0.5,0-0.9-0.4-0.9-0.9v-1.2c0-0.5-0.4-0.9-0.9-0.9h-1.2c-0.5,0-0.9-0.4-0.9-0.9v-1.2
	c0-0.5-0.4-0.9-0.9-0.9h-1.5c-0.4,0-0.7,0.2-0.9,0.6l-1.3,3c-6.5,7.8-13.6,15-21.4,21.4l-3,1.3c-0.3,0.1-0.5,0.5-0.5,0.8v1.6
	c0,0.5,0.4,0.9,0.9,0.9h1.2c0.5,0,0.9,0.4,0.9,0.9v1.2c0,0.5,0.4,0.9,0.9,0.9h1.2c0.5,0,0.9,0.4,0.9,0.9v1.2c0,0.5,0.4,0.9,0.9,0.9
	h1.2c0.5,0,0.9,0.4,0.9,0.9v1.2c0,0.5,0.4,0.9,0.9,0.9h1.6c0.4,0,0.7-0.2,0.8-0.5l1.3-3C202.2,62.8,209.4,55.6,217.2,49.1
	L217.2,49.1z M217.2,49.1"/>
<path class="st1" d="M208.5,42.2c-0.2,0-0.4-0.1-0.5-0.2c-0.3-0.3-0.3-0.7,0-1l1-1c0.3-0.3,0.7-0.3,1,0c0.3,0.3,0.3,0.7,0,1l-1,1
	C208.9,42.1,208.7,42.2,208.5,42.2L208.5,42.2z M208.5,42.2"/>
<path class="st1" d="M210.6,44.3c-0.2,0-0.4-0.1-0.5-0.2c-0.3-0.3-0.3-0.7,0-1l1-1c0.3-0.3,0.7-0.3,1,0c0.3,0.3,0.3,0.7,0,1l-1,1
	C211,44.2,210.8,44.3,210.6,44.3L210.6,44.3z M210.6,44.3"/>
<path class="st1" d="M212.6,46.3c-0.2,0-0.4-0.1-0.5-0.2c-0.3-0.3-0.3-0.7,0-1l1-1c0.3-0.3,0.7-0.3,1,0c0.3,0.3,0.3,0.7,0,1l-1,1
	C213,46.2,212.8,46.3,212.6,46.3L212.6,46.3z M212.6,46.3"/>
<path class="st1" d="M214.7,48.3c-0.2,0-0.4-0.1-0.5-0.2c-0.3-0.3-0.3-0.7,0-1l1-1c0.3-0.3,0.7-0.3,1,0c0.3,0.3,0.3,0.7,0,1l-1,1
	C215,48.3,214.9,48.3,214.7,48.3L214.7,48.3z M214.7,48.3"/>
<path class="st1" d="M187.1,63.7c-0.2,0-0.4-0.1-0.5-0.2c-0.3-0.3-0.3-0.7,0-1l1-1c0.3-0.3,0.7-0.3,1,0c0.3,0.3,0.3,0.7,0,1l-1,1
	C187.5,63.6,187.3,63.7,187.1,63.7L187.1,63.7z M187.1,63.7"/>
<path class="st1" d="M189.1,65.7c-0.2,0-0.4-0.1-0.5-0.2c-0.3-0.3-0.3-0.7,0-1l1-1c0.3-0.3,0.7-0.3,1,0c0.3,0.3,0.3,0.7,0,1l-1,1
	C189.5,65.6,189.3,65.7,189.1,65.7L189.1,65.7z M189.1,65.7"/>
<path class="st1" d="M191.2,67.7c-0.2,0-0.4-0.1-0.5-0.2c-0.3-0.3-0.3-0.7,0-1l1-1c0.3-0.3,0.7-0.3,1,0c0.3,0.3,0.3,0.7,0,1l-1,1
	C191.6,67.7,191.4,67.7,191.2,67.7L191.2,67.7z M191.2,67.7"/>
<path class="st1" d="M193.2,69.8c-0.2,0-0.4-0.1-0.5-0.2c-0.3-0.3-0.3-0.7,0-1l1-1c0.3-0.3,0.7-0.3,1,0c0.3,0.3,0.3,0.7,0,1l-1,1
	C193.6,69.7,193.4,69.8,193.2,69.8L193.2,69.8z M193.2,69.8"/>
<path class="st2" d="M202.3,63.2c3.5-3.7,7.1-7.3,10.9-10.6l-12.8-6.2c-3.5,3.7-7.1,7.3-10.9,10.6L202.3,63.2z M202.3,63.2"/>
<path class="st3" d="M205.9,54.8c0,2.2-1.8,4-4,4c-2.2,0-4-1.8-4-4s1.8-4,4-4C204.1,50.8,205.9,52.6,205.9,54.8L205.9,54.8z
	 M205.9,54.8"/>
<g>
	<path class="st4" d="M64.8,42.7c0-1.2-1-2.2-2.2-2.2l-3.8,0l1.3-1.3c0.9-0.9,0.9-2.2,0-3.1s-2.3-0.8-3.1,0l-1.3,1.3l0-3.7
		c0-1.2-1-2.2-2.2-2.2c-1.2,0-2.2,1-2.2,2.2l-0.9,6.9l5.3,5.2l7-0.9C63.8,44.9,64.8,43.9,64.8,42.7z"/>
	<path class="st5" d="M52.2,41.5l0.9-6.9c0-1.2,0.9-2.1,2.1-2.2c-0.4-0.6-1.1-0.9-1.8-0.9c-1.2,0-2.2,1-2.2,2.2l-0.9,6.9L52.2,41.5z
		"/>
	<path class="st4" d="M20.6,63.9c0,1.2,1,2.2,2.2,2.2l3.8,0l-1.3,1.3c-0.9,0.9-0.9,2.2,0,3.1c0.9,0.9,2.3,0.8,3.1,0l1.3-1.3l0,3.7
		c0,1.2,1,2.2,2.2,2.2c1.2,0,2.2-1,2.2-2.2l0.9-6.9l-5.3-5.2l-7,0.9C21.6,61.7,20.6,62.7,20.6,63.9z"/>
	<g class="st6">
		<path class="st7" d="M22.5,65.9c0-1.2,1-2.2,2.2-2.2l7-0.9l-1.9-2l-7,0.9c-1.2,0-2.2,1-2.2,2.2c0,1.1,0.8,2,1.9,2.2
			C22.5,66,22.5,66,22.5,65.9z"/>
	</g>
	<path id="SVGCleanerId_0" class="st8" d="M54.6,44.1c2.2,2.2,2.2,5.8,0,8L41.5,65c-2.2,2.2-5.9,2.2-8.1,0l-2.6-2.6
		c-2.2-2.2-2.2-5.8,0-8l13.2-13c2.2-2.2,5.9-2.2,8.1,0L54.6,44.1z"/>
	<g>
		<path id="SVGCleanerId_0_1_" class="st8" d="M54.6,44.1c2.2,2.2,2.2,5.8,0,8L41.5,65c-2.2,2.2-5.9,2.2-8.1,0l-2.6-2.6
			c-2.2-2.2-2.2-5.8,0-8l13.2-13c2.2-2.2,5.9-2.2,8.1,0L54.6,44.1z"/>
	</g>
	<g>
		<path class="st9" d="M43.7,62.9l2.1-2V40.2c-0.7,0.3-1.4,0.7-1.9,1.3l-0.1,0.1V62.9z"/>
		<path class="st9" d="M50.4,40.3c-0.7-0.3-1.4-0.5-2.1-0.5v18.5l2.1-2V40.3z"/>
		<path class="st9" d="M36.5,48.6l-2.1,2v15.3c0.6,0.4,1.3,0.6,2.1,0.7L36.5,48.6z"/>
		<path class="st9" d="M54.6,44.1L53,42.4v11.3l1.7-1.7C56.9,49.9,56.9,46.3,54.6,44.1z"/>
		<path class="st9" d="M41.1,65.3V44.1l-2,2c0,0,0,0,0,0l0,20.3C39.8,66.2,40.5,65.9,41.1,65.3C41.1,65.3,41.1,65.3,41.1,65.3z"/>
		<path class="st9" d="M31.9,53.2l-1.2,1.2c-2.2,2.2-2.2,5.8,0,8l1.2,1.2V53.2z"/>
	</g>
	<path class="st5" d="M33.6,64.3c-2.2-2.2-2.2-5.8,0-8l13.2-13c1.5-1.5,3.8-2,5.7-1.4L52,41.4c-2.2-2.2-5.9-2.2-8.1,0l-13.2,13
		c-2.2,2.2-2.2,5.8,0,8l2.6,2.6c0.7,0.7,1.5,1.2,2.4,1.4L33.6,64.3z"/>
</g>
<path class="st10" d="M158.9,38.3c-0.3,0.1-0.7-0.2-0.6-0.6l0.4-1.2c0.1-0.4-0.3-0.7-0.7-0.5c-1,0.6-2.6,1.6-2.9,2.5l-1.4,7.1
	c-3.6-1.5-8.6-0.2-12.3,3.5c-3.7,3.7-5,8.7-3.5,12.2l-6.4,1c-0.9,0.4-2,1.9-2.6,2.9c-0.2,0.4,0.1,0.8,0.5,0.7l1.2-0.4
	c0.3-0.1,0.7,0.2,0.6,0.6l-0.5,1.4c-0.1,0.3,0.2,0.7,0.6,0.6l1.4-0.5c0.3-0.1,0.7,0.2,0.6,0.6l-0.5,1.4c-0.1,0.3,0.2,0.7,0.6,0.6
	l1.4-0.4c0.3-0.1,0.7,0.2,0.6,0.6l-0.5,1.4c-0.1,0.3,0.2,0.7,0.6,0.6l1.4-0.5c0.3-0.1,0.7,0.2,0.6,0.6l-0.4,1.2
	c-0.1,0.4,0.3,0.7,0.7,0.5c1-0.6,2.6-1.7,2.9-2.6l1-6.5c3.5,1.4,8.4,0.1,12-3.6c3.7-3.7,5-8.5,3.6-12.1l7.2-1.5
	c0.8-0.3,1.8-1.8,2.4-2.8c0.2-0.4-0.1-0.8-0.6-0.7l-1.1,0.3c-0.3,0.1-0.7-0.2-0.6-0.6l0.5-1.5c0.1-0.3-0.2-0.7-0.6-0.6l-1.5,0.5
	c-0.3,0.1-0.7-0.2-0.6-0.6l0.5-1.5c0.1-0.3-0.2-0.7-0.6-0.6l-1.5,0.5c-0.3,0.1-0.7-0.2-0.6-0.6l0.5-1.4c0.1-0.3-0.2-0.7-0.6-0.6
	L158.9,38.3z M158.9,38.3"/>
<path class="st11" d="M151.7,50.9c-1.1-1.1-2.4-1.7-3.8-1.8l-2.8-2.8c-1.3,0.7-2.5,1.6-3.7,2.7c-1.2,1.2-2.2,2.6-2.9,4l2.7,2.7
	c0.1,1.4,0.7,2.8,1.8,3.8c1.1,1.1,2.4,1.7,3.8,1.8l2.9,2.9c1.4-0.7,2.8-1.6,4-2.9c1.1-1.1,2-2.4,2.7-3.7l-2.9-2.9
	C153.4,53.3,152.8,52,151.7,50.9L151.7,50.9z M151.7,50.9"/>
<path class="st12" d="M150.6,55.2c0,1.8-1.5,3.3-3.3,3.3c-1.8,0-3.2-1.5-3.2-3.3c0-1.8,1.5-3.3,3.2-3.3
	C149.2,52,150.6,53.4,150.6,55.2L150.6,55.2z M150.6,55.2"/>
<path class="st13" d="M155.7,48.2c-0.2,0-0.3-0.1-0.5-0.2c-0.3-0.3-0.3-0.7-0.1-1c1-1.2,2-1.3,3-1.3c0.3,0,0.6,0,1-0.1
	c0.4,0,0.8,0.2,0.8,0.6c0,0.4-0.2,0.8-0.6,0.8c-0.4,0.1-0.8,0.1-1.1,0.1c-0.9,0-1.3,0-1.9,0.8C156.1,48.1,155.9,48.2,155.7,48.2
	L155.7,48.2z M155.7,48.2"/>
<path class="st13" d="M155.1,47.6c-0.3,0-0.5-0.1-0.6-0.4c-0.2-0.3-0.1-0.8,0.3-1c1.5-0.8,2.4-2.8,2.1-4.7c0-0.4,0.2-0.8,0.6-0.8
	c0.4,0,0.8,0.2,0.8,0.6c0.3,2.4-0.9,5-2.9,6.1C155.4,47.6,155.3,47.6,155.1,47.6L155.1,47.6z M155.1,47.6"/>
<path class="st13" d="M135.6,65c-0.4,0-0.7-0.3-0.7-0.6c0-0.4,0.2-0.8,0.6-0.8c0.4-0.1,0.8-0.1,1.1-0.1c0.9,0,1.3,0,1.9-0.8
	c0.3-0.3,0.7-0.3,1-0.1c0.3,0.3,0.3,0.7,0.1,1c-1,1.2-2,1.3-3,1.3C136.4,65,136.1,65,135.6,65C135.7,65,135.7,65,135.6,65L135.6,65z
	 M135.6,65"/>
<path class="st13" d="M137.2,69.8c-0.4,0-0.7-0.3-0.7-0.6c-0.3-2.4,0.9-5,2.9-6.1c0.3-0.2,0.8-0.1,1,0.3c0.2,0.3,0.1,0.8-0.3,1
	c-1.5,0.8-2.4,2.8-2.1,4.7C138,69.4,137.7,69.8,137.2,69.8C137.3,69.8,137.3,69.8,137.2,69.8L137.2,69.8z M137.2,69.8"/>
<path class="st14" d="M111.5,47.8c0,0,1.8-0.5,1.7-1.8c-0.1-0.6-0.4-1.3-1-1.2c-0.5,0.1-1.1-0.5-1-1l0.1-0.5c0.1-0.5-0.5-1.1-1-1
	l-0.5,0.1c-0.5,0.1-1.1-0.5-1-1l0.1-0.5c0.1-0.5-0.5-1.1-1-1l-0.5,0.1c-0.5,0.1-1.1-0.5-1-1l0.1-0.5c0.1-0.5-0.5-1.1-1-1l-0.5,0.1
	c-0.5,0.1-1.1-0.5-1-1l0-0.1c0.1-0.6-0.6-0.9-1.2-1c-1.5-0.1-1.9,1.7-1.9,1.7c0,0-2.4,3.9-3,10.5l3.6,3.6
	C101.3,51,107.2,51,111.5,47.8L111.5,47.8z M111.5,47.8"/>
<path class="st14" d="M76,61.6c0,0-1.8,0.5-1.7,1.8c0,0.6,0.4,1.3,1,1.2c0.5-0.1,1.1,0.5,1,1l-0.1,0.5c-0.1,0.5,0.5,1.1,1,1l0.5-0.1
	c0.5-0.1,1.1,0.5,1,1l-0.1,0.5c-0.1,0.5,0.5,1.1,1,1l0.5-0.1c0.5-0.1,1.1,0.5,1,1l-0.1,0.5c-0.1,0.5,0.5,1.1,1,1l0.5-0.1
	c0.5-0.1,1.1,0.5,1,1l0,0.1c-0.1,0.6,0.6,0.9,1.2,1c1.5,0.1,1.9-1.7,1.9-1.7c0,0,2.4-3.9,3-10.5l-3.6-3.6
	C86.2,58.5,80.4,58.5,76,61.6L76,61.6z M76,61.6"/>
<path class="st2" d="M103,56.6L95.6,64c-1.1,1.1-2.8,1.1-3.9,0l-7.4-7.4c-1.1-1.1-1.1-2.8,0-3.9l7.4-7.4c1.1-1.1,2.8-1.1,3.9,0
	l7.4,7.4C104.1,53.8,104.1,55.6,103,56.6L103,56.6z M103,56.6"/>
<path class="st3" d="M101.2,58.4l-5,5l-9.6-12.9l5-5L101.2,58.4z M101.2,58.4"/>
<path class="st1" d="M100.6,49.6c-0.2,0-0.3-0.1-0.4-0.2c-0.3-0.2-0.3-0.7-0.1-1c1.3-1.5,2.4-1.5,3.6-1.6c0.4,0,0.8,0,1.3-0.1
	c0.4,0,0.7,0.2,0.8,0.6c0,0.4-0.2,0.7-0.6,0.8c-0.5,0.1-1,0.1-1.4,0.1c-1.2,0-1.8,0.1-2.6,1.1C100.9,49.6,100.7,49.6,100.6,49.6
	L100.6,49.6z M100.6,49.6"/>
<path class="st1" d="M99.8,49c-0.2,0-0.5-0.1-0.6-0.3c-0.2-0.3-0.1-0.7,0.3-0.9c1.9-1.1,3.2-3.8,2.9-6.2c0-0.4,0.2-0.7,0.6-0.8
	c0.4,0,0.7,0.2,0.8,0.6c0.4,3-1.1,6.2-3.5,7.6C100,49,99.9,49,99.8,49L99.8,49z M99.8,49"/>
<path class="st1" d="M82.5,62.6c-0.3,0-0.6-0.3-0.7-0.6c0-0.4,0.2-0.7,0.6-0.8c0.5-0.1,1-0.1,1.4-0.1c1.2,0,1.8-0.1,2.6-1.1
	c0.2-0.3,0.7-0.3,1-0.1c0.3,0.2,0.3,0.7,0.1,1c-1.3,1.5-2.4,1.5-3.6,1.6C83.5,62.5,83.1,62.5,82.5,62.6
	C82.6,62.6,82.6,62.6,82.5,62.6L82.5,62.6z M82.5,62.6"/>
<path class="st1" d="M84.6,68.8c-0.3,0-0.6-0.3-0.7-0.6c-0.4-3,1.1-6.2,3.5-7.6c0.3-0.2,0.7-0.1,0.9,0.3c0.2,0.3,0.1,0.7-0.3,0.9
	c-1.9,1.1-3.2,3.8-2.9,6.2C85.3,68.4,85,68.7,84.6,68.8C84.6,68.8,84.6,68.8,84.6,68.8L84.6,68.8z M84.6,68.8"/>
<path class="st0" d="M429.9,49.1l3-1.3c0.3-0.1,0.6-0.5,0.6-0.9v-1.5c0-0.5-0.4-0.9-0.9-0.9h-1.2c-0.5,0-0.9-0.4-0.9-0.9v-1.2
	c0-0.5-0.4-0.9-0.9-0.9h-1.2c-0.5,0-0.9-0.4-0.9-0.9v-1.2c0-0.5-0.4-0.9-0.9-0.9h-1.2c-0.5,0-0.9-0.4-0.9-0.9v-1.2
	c0-0.5-0.4-0.9-0.9-0.9h-1.5c-0.4,0-0.7,0.2-0.9,0.6l-1.3,3c-6.5,7.8-13.6,15-21.4,21.4l-3,1.3c-0.3,0.1-0.5,0.5-0.5,0.8v1.6
	c0,0.5,0.4,0.9,0.9,0.9h1.2c0.5,0,0.9,0.4,0.9,0.9v1.2c0,0.5,0.4,0.9,0.9,0.9h1.2c0.5,0,0.9,0.4,0.9,0.9v1.2c0,0.5,0.4,0.9,0.9,0.9
	h1.2c0.5,0,0.9,0.4,0.9,0.9v1.2c0,0.5,0.4,0.9,0.9,0.9h1.6c0.4,0,0.7-0.2,0.8-0.5l1.3-3C415,62.8,422.1,55.6,429.9,49.1L429.9,49.1z
	 M429.9,49.1"/>
<path class="st1" d="M421.3,42.2c-0.2,0-0.4-0.1-0.5-0.2c-0.3-0.3-0.3-0.7,0-1l1-1c0.3-0.3,0.7-0.3,1,0c0.3,0.3,0.3,0.7,0,1l-1,1
	C421.6,42.1,421.5,42.2,421.3,42.2L421.3,42.2z M421.3,42.2"/>
<path class="st1" d="M423.3,44.3c-0.2,0-0.4-0.1-0.5-0.2c-0.3-0.3-0.3-0.7,0-1l1-1c0.3-0.3,0.7-0.3,1,0c0.3,0.3,0.3,0.7,0,1l-1,1
	C423.7,44.2,423.5,44.3,423.3,44.3L423.3,44.3z M423.3,44.3"/>
<path class="st1" d="M425.3,46.3c-0.2,0-0.4-0.1-0.5-0.2c-0.3-0.3-0.3-0.7,0-1l1-1c0.3-0.3,0.7-0.3,1,0c0.3,0.3,0.3,0.7,0,1l-1,1
	C425.7,46.2,425.5,46.3,425.3,46.3L425.3,46.3z M425.3,46.3"/>
<path class="st1" d="M427.4,48.3c-0.2,0-0.4-0.1-0.5-0.2c-0.3-0.3-0.3-0.7,0-1l1-1c0.3-0.3,0.7-0.3,1,0c0.3,0.3,0.3,0.7,0,1l-1,1
	C427.8,48.3,427.6,48.3,427.4,48.3L427.4,48.3z M427.4,48.3"/>
<path class="st1" d="M399.8,63.7c-0.2,0-0.4-0.1-0.5-0.2c-0.3-0.3-0.3-0.7,0-1l1-1c0.3-0.3,0.7-0.3,1,0c0.3,0.3,0.3,0.7,0,1l-1,1
	C400.2,63.6,400,63.7,399.8,63.7L399.8,63.7z M399.8,63.7"/>
<path class="st1" d="M401.9,65.7c-0.2,0-0.4-0.1-0.5-0.2c-0.3-0.3-0.3-0.7,0-1l1-1c0.3-0.3,0.7-0.3,1,0c0.3,0.3,0.3,0.7,0,1l-1,1
	C402.2,65.6,402,65.7,401.9,65.7L401.9,65.7z M401.9,65.7"/>
<path class="st1" d="M403.9,67.7c-0.2,0-0.4-0.1-0.5-0.2c-0.3-0.3-0.3-0.7,0-1l1-1c0.3-0.3,0.7-0.3,1,0c0.3,0.3,0.3,0.7,0,1l-1,1
	C404.3,67.7,404.1,67.7,403.9,67.7L403.9,67.7z M403.9,67.7"/>
<path class="st1" d="M405.9,69.8c-0.2,0-0.4-0.1-0.5-0.2c-0.3-0.3-0.3-0.7,0-1l1-1c0.3-0.3,0.7-0.3,1,0c0.3,0.3,0.3,0.7,0,1l-1,1
	C406.3,69.7,406.1,69.8,405.9,69.8L405.9,69.8z M405.9,69.8"/>
<path class="st2" d="M415.1,63.2c3.5-3.7,7.1-7.3,10.9-10.6l-12.8-6.2c-3.5,3.7-7.1,7.3-10.9,10.6L415.1,63.2z M415.1,63.2"/>
<path class="st3" d="M418.6,54.8c0,2.2-1.8,4-4,4c-2.2,0-4-1.8-4-4s1.8-4,4-4C416.8,50.8,418.6,52.6,418.6,54.8L418.6,54.8z
	 M418.6,54.8"/>
<g>
	<path class="st4" d="M277.5,42.7c0-1.2-1-2.2-2.2-2.2l-3.8,0l1.3-1.3c0.9-0.9,0.9-2.2,0-3.1c-0.9-0.9-2.3-0.8-3.1,0l-1.3,1.3l0-3.7
		c0-1.2-1-2.2-2.2-2.2c-1.2,0-2.2,1-2.2,2.2l-0.9,6.9l5.3,5.2l7-0.9C276.5,44.9,277.5,43.9,277.5,42.7z"/>
	<path class="st5" d="M264.9,41.5l0.9-6.9c0-1.2,0.9-2.1,2.1-2.2c-0.4-0.6-1.1-0.9-1.8-0.9c-1.2,0-2.2,1-2.2,2.2l-0.9,6.9
		L264.9,41.5z"/>
	<path class="st4" d="M233.3,63.9c0,1.2,1,2.2,2.2,2.2l3.8,0l-1.3,1.3c-0.9,0.9-0.9,2.2,0,3.1c0.9,0.9,2.3,0.8,3.1,0l1.3-1.3l0,3.7
		c0,1.2,1,2.2,2.2,2.2c1.2,0,2.2-1,2.2-2.2l0.9-6.9l-5.3-5.2l-7,0.9C234.3,61.7,233.3,62.7,233.3,63.9z"/>
	<g class="st6">
		<path class="st7" d="M235.3,65.9c0-1.2,1-2.2,2.2-2.2l7-0.9l-1.9-2l-7,0.9c-1.2,0-2.2,1-2.2,2.2c0,1.1,0.8,2,1.9,2.2
			C235.3,66,235.3,66,235.3,65.9z"/>
	</g>
	<path id="SVGCleanerId_0_3_" class="st8" d="M267.4,44.1c2.2,2.2,2.2,5.8,0,8l-13.2,13c-2.2,2.2-5.9,2.2-8.1,0l-2.6-2.6
		c-2.2-2.2-2.2-5.8,0-8l13.2-13c2.2-2.2,5.9-2.2,8.1,0L267.4,44.1z"/>
	<g>
		<path id="SVGCleanerId_0_2_" class="st8" d="M267.4,44.1c2.2,2.2,2.2,5.8,0,8l-13.2,13c-2.2,2.2-5.9,2.2-8.1,0l-2.6-2.6
			c-2.2-2.2-2.2-5.8,0-8l13.2-13c2.2-2.2,5.9-2.2,8.1,0L267.4,44.1z"/>
	</g>
	<g>
		<path class="st9" d="M256.4,62.9l2.1-2V40.2c-0.7,0.3-1.4,0.7-1.9,1.3l-0.1,0.1V62.9z"/>
		<path class="st9" d="M263.1,40.3c-0.7-0.3-1.4-0.5-2.1-0.5v18.5l2.1-2V40.3z"/>
		<path class="st9" d="M249.3,48.6l-2.1,2v15.3c0.6,0.4,1.3,0.6,2.1,0.7L249.3,48.6z"/>
		<path class="st9" d="M267.4,44.1l-1.7-1.7v11.3l1.7-1.7C269.6,49.9,269.6,46.3,267.4,44.1z"/>
		<path class="st9" d="M253.9,65.3V44.1l-2,2c0,0,0,0,0,0l0,20.3C252.6,66.2,253.3,65.9,253.9,65.3
			C253.9,65.3,253.9,65.3,253.9,65.3z"/>
		<path class="st9" d="M244.6,53.2l-1.2,1.2c-2.2,2.2-2.2,5.8,0,8l1.2,1.2V53.2z"/>
	</g>
	<path class="st5" d="M246.3,64.3c-2.2-2.2-2.2-5.8,0-8l13.2-13c1.5-1.5,3.8-2,5.7-1.4l-0.5-0.5c-2.2-2.2-5.9-2.2-8.1,0l-13.2,13
		c-2.2,2.2-2.2,5.8,0,8l2.6,2.6c0.7,0.7,1.5,1.2,2.4,1.4L246.3,64.3z"/>
</g>
<path class="st10" d="M371.6,38.3c-0.3,0.1-0.7-0.2-0.6-0.6l0.4-1.2c0.1-0.4-0.3-0.7-0.7-0.5c-1,0.6-2.6,1.6-2.9,2.5l-1.4,7.1
	c-3.6-1.5-8.6-0.2-12.3,3.5c-3.7,3.7-5,8.7-3.5,12.2l-6.4,1c-0.9,0.4-2,1.9-2.6,2.9c-0.2,0.4,0.1,0.8,0.5,0.7l1.2-0.4
	c0.3-0.1,0.7,0.2,0.6,0.6l-0.5,1.4c-0.1,0.3,0.2,0.7,0.6,0.6l1.4-0.5c0.3-0.1,0.7,0.2,0.6,0.6l-0.5,1.4c-0.1,0.3,0.2,0.7,0.6,0.6
	l1.4-0.4c0.3-0.1,0.7,0.2,0.6,0.6l-0.5,1.4c-0.1,0.3,0.2,0.7,0.6,0.6l1.4-0.5c0.3-0.1,0.7,0.2,0.6,0.6l-0.4,1.2
	c-0.1,0.4,0.3,0.7,0.7,0.5c1-0.6,2.6-1.7,2.9-2.6l1-6.5c3.5,1.4,8.4,0.1,12-3.6c3.7-3.7,5-8.5,3.6-12.1l7.2-1.5
	c0.8-0.3,1.8-1.8,2.4-2.8c0.2-0.4-0.1-0.8-0.6-0.7l-1.1,0.3c-0.3,0.1-0.7-0.2-0.6-0.6l0.5-1.5c0.1-0.3-0.2-0.7-0.6-0.6l-1.5,0.5
	c-0.3,0.1-0.7-0.2-0.6-0.6l0.5-1.5c0.1-0.3-0.2-0.7-0.6-0.6l-1.5,0.5c-0.3,0.1-0.7-0.2-0.6-0.6l0.5-1.4c0.1-0.3-0.2-0.7-0.6-0.6
	L371.6,38.3z M371.6,38.3"/>
<path class="st11" d="M364.5,50.9c-1.1-1.1-2.4-1.7-3.8-1.8l-2.8-2.8c-1.3,0.7-2.5,1.6-3.7,2.7c-1.2,1.2-2.2,2.6-2.9,4l2.7,2.7
	c0.1,1.4,0.7,2.8,1.8,3.8c1.1,1.1,2.4,1.7,3.8,1.8l2.9,2.9c1.4-0.7,2.8-1.6,4-2.9c1.1-1.1,2-2.4,2.7-3.7l-2.9-2.9
	C366.1,53.3,365.5,52,364.5,50.9L364.5,50.9z M364.5,50.9"/>
<path class="st12" d="M363.4,55.2c0,1.8-1.5,3.3-3.3,3.3c-1.8,0-3.2-1.5-3.2-3.3c0-1.8,1.5-3.3,3.2-3.3
	C361.9,52,363.4,53.4,363.4,55.2L363.4,55.2z M363.4,55.2"/>
<path class="st13" d="M368.4,48.2c-0.2,0-0.3-0.1-0.5-0.2c-0.3-0.3-0.3-0.7-0.1-1c1-1.2,2-1.3,3-1.3c0.3,0,0.6,0,1-0.1
	c0.4,0,0.8,0.2,0.8,0.6c0,0.4-0.2,0.8-0.6,0.8c-0.4,0.1-0.8,0.1-1.1,0.1c-0.9,0-1.3,0-1.9,0.8C368.9,48.1,368.7,48.2,368.4,48.2
	L368.4,48.2z M368.4,48.2"/>
<path class="st13" d="M367.9,47.6c-0.3,0-0.5-0.1-0.6-0.4c-0.2-0.3-0.1-0.8,0.3-1c1.5-0.8,2.4-2.8,2.1-4.7c0-0.4,0.2-0.8,0.6-0.8
	c0.4,0,0.8,0.2,0.8,0.6c0.3,2.4-0.9,5-2.9,6.1C368.1,47.6,368,47.6,367.9,47.6L367.9,47.6z M367.9,47.6"/>
<path class="st13" d="M348.4,65c-0.4,0-0.7-0.3-0.7-0.6c0-0.4,0.2-0.8,0.6-0.8c0.4-0.1,0.8-0.1,1.1-0.1c0.9,0,1.3,0,1.9-0.8
	c0.3-0.3,0.7-0.3,1-0.1c0.3,0.3,0.3,0.7,0.1,1c-1,1.2-2,1.3-3,1.3C349.1,65,348.8,65,348.4,65C348.4,65,348.4,65,348.4,65L348.4,65z
	 M348.4,65"/>
<path class="st13" d="M350,69.8c-0.4,0-0.7-0.3-0.7-0.6c-0.3-2.4,0.9-5,2.9-6.1c0.3-0.2,0.8-0.1,1,0.3c0.2,0.3,0.1,0.8-0.3,1
	c-1.5,0.8-2.4,2.8-2.1,4.7C350.7,69.4,350.5,69.8,350,69.8C350,69.8,350,69.8,350,69.8L350,69.8z M350,69.8"/>
<path class="st14" d="M324.3,47.8c0,0,1.8-0.5,1.7-1.8c-0.1-0.6-0.4-1.3-1-1.2c-0.5,0.1-1.1-0.5-1-1l0.1-0.5c0.1-0.5-0.5-1.1-1-1
	l-0.5,0.1c-0.5,0.1-1.1-0.5-1-1l0.1-0.5c0.1-0.5-0.5-1.1-1-1l-0.5,0.1c-0.5,0.1-1.1-0.5-1-1l0.1-0.5c0.1-0.5-0.5-1.1-1-1l-0.5,0.1
	c-0.5,0.1-1.1-0.5-1-1l0-0.1c0.1-0.6-0.6-0.9-1.2-1c-1.5-0.1-1.9,1.7-1.9,1.7c0,0-2.4,3.9-3,10.5L314,51C314,51,319.9,51,324.3,47.8
	L324.3,47.8z M324.3,47.8"/>
<path class="st14" d="M288.7,61.6c0,0-1.8,0.5-1.7,1.8c0,0.6,0.4,1.3,1,1.2c0.5-0.1,1.1,0.5,1,1l-0.1,0.5c-0.1,0.5,0.5,1.1,1,1
	l0.5-0.1c0.5-0.1,1.1,0.5,1,1l-0.1,0.5c-0.1,0.5,0.5,1.1,1,1l0.5-0.1c0.5-0.1,1.1,0.5,1,1l-0.1,0.5c-0.1,0.5,0.5,1.1,1,1l0.5-0.1
	c0.5-0.1,1.1,0.5,1,1l0,0.1c-0.1,0.6,0.6,0.9,1.2,1c1.5,0.1,1.9-1.7,1.9-1.7c0,0,2.4-3.9,3-10.5l-3.6-3.6
	C298.9,58.5,293.1,58.5,288.7,61.6L288.7,61.6z M288.7,61.6"/>
<path class="st2" d="M315.8,56.6l-7.4,7.4c-1.1,1.1-2.8,1.1-3.9,0l-7.4-7.4c-1.1-1.1-1.1-2.8,0-3.9l7.4-7.4c1.1-1.1,2.8-1.1,3.9,0
	l7.4,7.4C316.8,53.8,316.8,55.6,315.8,56.6L315.8,56.6z M315.8,56.6"/>
<path class="st3" d="M313.9,58.4l-5,5l-9.6-12.9l5-5L313.9,58.4z M313.9,58.4"/>
<path class="st1" d="M313.3,49.6c-0.2,0-0.3-0.1-0.4-0.2c-0.3-0.2-0.3-0.7-0.1-1c1.3-1.5,2.4-1.5,3.6-1.6c0.4,0,0.8,0,1.3-0.1
	c0.4,0,0.7,0.2,0.8,0.6c0,0.4-0.2,0.7-0.6,0.8c-0.5,0.1-1,0.1-1.4,0.1c-1.2,0-1.8,0.1-2.6,1.1C313.7,49.6,313.5,49.6,313.3,49.6
	L313.3,49.6z M313.3,49.6"/>
<path class="st1" d="M312.5,49c-0.2,0-0.5-0.1-0.6-0.3c-0.2-0.3-0.1-0.7,0.3-0.9c1.9-1.1,3.2-3.8,2.9-6.2c0-0.4,0.2-0.7,0.6-0.8
	c0.4,0,0.7,0.2,0.8,0.6c0.4,3-1.1,6.2-3.5,7.6C312.8,49,312.6,49,312.5,49L312.5,49z M312.5,49"/>
<path class="st1" d="M295.2,62.6c-0.3,0-0.6-0.3-0.7-0.6c0-0.4,0.2-0.7,0.6-0.8c0.5-0.1,1-0.1,1.4-0.1c1.2,0,1.8-0.1,2.6-1.1
	c0.2-0.3,0.7-0.3,1-0.1c0.3,0.2,0.3,0.7,0.1,1c-1.3,1.5-2.4,1.5-3.6,1.6C296.2,62.5,295.8,62.5,295.2,62.6
	C295.3,62.6,295.3,62.6,295.2,62.6L295.2,62.6z M295.2,62.6"/>
<path class="st1" d="M297.3,68.8c-0.3,0-0.6-0.3-0.7-0.6c-0.4-3,1.1-6.2,3.5-7.6c0.3-0.2,0.7-0.1,0.9,0.3c0.2,0.3,0.1,0.7-0.3,0.9
	c-1.9,1.1-3.2,3.8-2.9,6.2C298,68.4,297.8,68.7,297.3,68.8C297.4,68.8,297.3,68.8,297.3,68.8L297.3,68.8z M297.3,68.8"/>
</svg>
